HIERARCHY
ROOT Hips
{
  OFFSET -4.35178 90.3298 111.633
  CHANNELS 6 Xposition Yposition Zposition Zrotation Xrotation Yrotation
  JOINT LeftUpLeg
  {
    OFFSET 0.103456 1.85784 10.5485
    CHANNELS 6 Xposition Yposition Zposition Zrotation Xrotation Yrotation
    JOINT LeftLeg
    {
      OFFSET 43.5 -4.2e-05 0
      CHANNELS 6 Xposition Yposition Zposition Zrotation Xrotation Yrotation
      JOINT LeftFoot
      {
        OFFSET 42.3722 1.9e-05 0
        CHANNELS 6 Xposition Yposition Zposition Zrotation Xrotation Yrotation
        JOINT LeftToe
        {
          OFFSET 17.3 0 0
          CHANNELS 6 Xposition Yposition Zposition Zrotation Xrotation Yrotation
          End Site
          {
            OFFSET 0 0 0
          }
        }
      }
    }
  }
  JOINT RightUpLeg
  {
    OFFSET 0.103456 1.85782 -10.5485
    CHANNELS 6 Xposition Yposition Zposition Zrotation Xrotation Yrotation
    JOINT RightLeg
    {
      OFFSET 43.5 -2.7e-05 0
      CHANNELS 6 Xposition Yposition Zposition Zrotation Xrotation Yrotation
      JOINT RightFoot
      {
        OFFSET 42.3723 0 0
        CHANNELS 6 Xposition Yposition Zposition Zrotation Xrotation Yrotation
        JOINT RightToe
        {
          OFFSET 17.3 0 1.7e-05
          CHANNELS 6 Xposition Yposition Zposition Zrotation Xrotation Yrotation
          End Site
          {
            OFFSET 0 0 0
          }
        }
      }
    }
  }
  JOINT Spine
  {
    OFFSET 6.90197 -2.60373 0
    CHANNELS 6 Xposition Yposition Zposition Zrotation Xrotation Yrotation
    JOINT Spine1
    {
      OFFSET 12.5881 0 0
      CHANNELS 6 Xposition Yposition Zposition Zrotation Xrotation Yrotation
      JOINT Spine2
      {
        OFFSET 12.3432 -1.8e-05 0
        CHANNELS 6 Xposition Yposition Zposition Zrotation Xrotation Yrotation
        JOINT Neck
        {
          OFFSET 25.8329 2.3e-05 0
          CHANNELS 6 Xposition Yposition Zposition Zrotation Xrotation Yrotation
          JOINT Head
          {
            OFFSET 11.7666 0 0
            CHANNELS 6 Xposition Yposition Zposition Zrotation Xrotation Yrotation
            End Site
            {
              OFFSET 0 0 0
            }
          }
        }
        JOINT LeftShoulder
        {
          OFFSET 19.7459 -1.48035 6.0001
          CHANNELS 6 Xposition Yposition Zposition Zrotation Xrotation Yrotation
          JOINT LeftArm
          {
            OFFSET 11.2841 1.8e-05 -2e-05
            CHANNELS 6 Xposition Yposition Zposition Zrotation Xrotation Yrotation
            JOINT LeftForeArm
            {
              OFFSET 33 -1.3e-05 1.9e-05
              CHANNELS 6 Xposition Yposition Zposition Zrotation Xrotation Yrotation
              JOINT LeftHand
              {
                OFFSET 25.2 3.2e-05 1.1e-05
                CHANNELS 6 Xposition Yposition Zposition Zrotation Xrotation Yrotation
                End Site
                {
                  OFFSET 0 0 0
                }
              }
            }
          }
        }
        JOINT RightShoulder
        {
          OFFSET 19.7461 -1.48036 -6.00008
          CHANNELS 6 Xposition Yposition Zposition Zrotation Xrotation Yrotation
          JOINT RightArm
          {
            OFFSET 11.2841 0 0
            CHANNELS 6 Xposition Yposition Zposition Zrotation Xrotation Yrotation
            JOINT RightForeArm
            {
              OFFSET 33.0001 1.6e-05 0
              CHANNELS 6 Xposition Yposition Zposition Zrotation Xrotation Yrotation
              JOINT RightHand
              {
                OFFSET 25.1998 0.000123 0.000432
                CHANNELS 6 Xposition Yposition Zposition Zrotation Xrotation Yrotation
                End Site
                {
                  OFFSET 0 0 0
                }
              }
            }
          }
        }
      }
    }
  }
}
MOTION
Frames:	10
Frame Time:	0.0333333
-70.3812 89.2324 115.263 83.9176 -65.3401 1.74272 0.103456 1.85784 10.5485 -24.7062 4.55734 -174.003 43.5 -4.2e-05 1e-05 -42.823 -5.09038 2.204 42.3722 1.9e-05 2.84217e-14 70.8225 2.0255 -1.77498 17.3 0 3e-06 21.4546 -1e-06 0.003093 0.103456 1.85782 -10.5485 20.8241 -1.70072 -179.031 43.5 -2.7e-05 4e-06 -26.8638 15.5009 10.5423 42.3723 -1.42109e-14 1e-05 58.374 -22.7877 4.03767 17.3 -6e-06 1.7e-05 21.4546 -1.9e-05 -0.003116 6.90197 -2.60373 -3e-06 10.88 1.52366 -0.478395 12.5881 1e-05 8e-06 11.735 3.07476 -1.23212 12.3432 -1.8e-05 -5e-06 11.378 3.16763 -1.40323 25.8329 2.3e-05 7e-06 3.11591 -5.34101 -0.807579 11.7666 -8e-06 -6e-06 -32.633 -16.8418 13.389 19.7459 -1.48035 6.0001 -175.887 -6.09224 -92.8262 11.2841 1.8e-05 -2e-05 -9.9951 -11.8743 67.2098 33 -1.3e-05 1.9e-05 -99.2595 -16.0586 -7.70223 25.2 3.2e-05 1.1e-05 -51.7012 41.7021 -1.32193 19.7461 -1.48036 -6.00008 -161.32 -13.0401 82.3921 11.2841 0 -1e-06 -20.3894 12.7851 -43.8493 33.0001 1.6e-05 -1e-06 -139.247 -8.72315 12.8055 25.1998 0.000123 0.000432 -5.87509 -5.7255 8.09754 
-73.3201 90.2976 109.43 85.128 -65.19 2.9585 0.103456 1.85784 10.5485 -20.9614 5.6303 -175.441 43.5 -4.2e-05 1e-05 -26.2883 -2.52909 -0.794462 42.3722 1.9e-05 0 68.9737 -0.205511 -8.9187 17.3 0 3e-06 21.4546 -1e-06 0.003093 0.103456 1.85782 -10.5485 21.8329 -1.19793 179.806 43.5 -2.7e-05 4e-06 -27.2366 16.2299 10.5379 42.3723 0 1e-05 53.5641 -27.9375 6.46269 17.3 -6e-06 1.7e-05 21.4546 -1.9e-05 -0.003116 6.90197 -2.60373 -3e-06 10.6049 1.5228 -0.669507 12.5881 1e-05 8e-06 11.1902 3.03207 -1.60547 12.3432 -1.8e-05 -5e-06 10.8345 3.09362 -1.7732 25.8329 2.3e-05 7e-06 2.92669 -5.21577 -0.760411 11.7666 -8e-06 -6e-06 -33.3991 -17.3011 13.8461 19.7459 -1.48035 6.0001 -175.229 -6.15378 -93.1928 11.2841 1.8e-05 -2e-05 -9.33272 -11.9683 67.1811 33 -1.3e-05 1.9e-05 -100.288 -15.309 -7.69115 25.2 3.2e-05 1.1e-05 -48.9743 38.41 -0.484279 19.7461 -1.48036 -6.00008 -162.276 -12.0618 82.8567 11.2841 0 -1e-06 -22.3515 8.66933 -43.1368 33.0001 1.6e-05 -1e-06 -138.977 -7.62868 13.961 25.1998 0.000123 0.000432 -5.0472 -3.51535 5.72228 
-76.3068 90.0289 103.661 83.8769 -65.3826 1.72054 0.103456 1.85784 10.5485 -18.325 7.94261 -176.839 43.5 -4.2e-05 1e-05 -20.2641 -1.71307 -2.08454 42.3722 1.9e-05 0 68.0846 -2.08021 -11.8341 17.3 0 3e-06 21.4546 -1e-06 0.003093 0.103456 1.85782 -10.5485 20.2772 0.145091 179.043 43.5 -2.7e-05 4e-06 -35.3868 17.2188 10.4307 42.3723 1.42109e-14 1e-05 54.9442 -32.7942 9.02844 17.3 -6e-06 1.7e-05 21.4546 -1.9e-05 -0.003116 6.90197 -2.60373 -3e-06 10.4527 1.35789 -0.625258 12.5881 1e-05 8e-06 10.8844 2.71142 -1.48135 12.3432 -1.8e-05 -5e-06 10.5324 2.77662 -1.62962 25.8329 2.3e-05 7e-06 2.93823 -5.21288 -0.612822 11.7666 -8e-06 -6e-06 -33.4006 -17.1847 13.5905 19.7459 -1.48035 6.0001 -175.108 -6.16282 -93.2552 11.2841 1.8e-05 -2e-05 -8.79977 -12.8155 67.3331 33 -1.3e-05 1.9e-05 -100.409 -14.2677 -7.41476 25.2 3.2e-05 1.1e-05 -46.0165 35.2495 0.367519 19.7461 -1.48036 -6.00008 -162.59 -11.6722 82.3819 11.2841 -1.42109e-14 -1e-06 -23.1287 5.11141 -42.6092 33.0001 1.6e-05 -1e-06 -138.583 -6.58801 15.2491 25.1998 0.000123 0.000432 -5.56282 -3.84277 5.95292 
-79.26 88.5652 97.9566 80.1458 -65.7655 -1.8906 0.103456 1.85784 10.5485 -17.5241 10.8423 -177.275 43.5 -4.2e-05 1e-05 -25.7553 -2.05739 -2.86341 42.3722 1.9e-05 0 69.3006 -0.942379 -9.67091 17.3 3.55271e-15 3e-06 21.4546 -1e-06 0.003093 0.103456 1.85782 -10.5485 17.2846 0.481871 178.626 43.5 -2.7e-05 4e-06 -48.9984 18.7996 8.98798 42.3723 -1.42109e-14 1e-05 61.6227 -36.4189 13.942 17.3 -6e-06 1.7e-05 21.4546 -1.9e-05 -0.003116 6.90197 -2.60373 -3e-06 10.461 0.96008 -0.454159 12.5881 1e-05 8e-06 10.8988 1.95362 -1.06309 12.3432 -1.8e-05 -5e-06 10.5554 2.04647 -1.16563 25.8329 2.3e-05 7e-06 3.00433 -5.05009 -0.562357 11.7666 -8e-06 -6e-06 -32.2929 -16.4862 13.2263 19.7459 -1.48035 6.0001 -175.487 -5.7964 -93.0583 11.2841 1.8e-05 -2e-05 -8.34141 -14.0996 67.6068 33 -1.3e-05 1.9e-05 -99.1709 -14.536 -7.14022 25.2 3.2e-05 1.1e-05 -44.2656 33.1058 0.798444 19.7461 -1.48036 -6.00008 -162.072 -11.577 81.0339 11.2841 0 -1e-06 -22.3305 3.42668 -42.7759 33.0001 1.6e-05 -1e-06 -137.91 -5.99149 16.4895 25.1998 0.000123 0.000432 -5.73371 -5.26608 7.05132 
-82.2424 86.3339 92.3896 75.1934 -66.7354 -6.35696 0.103456 1.85784 10.5485 -16.5745 12.8461 -178.044 43.5 -4.2e-05 1e-05 -35.4334 -2.78859 -1.56107 42.3722 1.9e-05 0 76.1407 5.14308 -6.02669 17.3 7.10543e-15 3e-06 21.4546 -1e-06 0.003093 0.103456 1.85782 -10.5485 13.9764 0.0205034 176.658 43.5 -2.7e-05 4e-06 -63.3081 20.6643 7.85962 42.3723 0 1e-05 69.9541 -37.0211 19.1198 17.3 -6e-06 1.7e-05 21.4546 -1.9e-05 -0.003116 6.90197 -2.60373 -3e-06 10.5039 0.414345 -0.432947 12.5881 1e-05 8e-06 10.9896 0.87264 -0.914238 12.3432 -1.8e-05 -5e-06 10.6605 0.978258 -0.950513 25.8329 2.3e-05 7e-06 3.1136 -4.08315 -1.02253 11.7666 -8e-06 -6e-06 -30.8908 -14.9848 13.4761 19.7459 -1.48035 6.0001 -176.315 -5.47428 -92.8634 11.2841 1.8e-05 -2e-05 -7.95121 -15.561 67.4488 33 -1.3e-05 1.9e-05 -97.2252 -14.578 -6.7642 25.2 3.2e-05 1.1e-05 -43.7786 30.9101 1.32099 19.7461 -1.48036 -6.00008 -161.509 -11.265 78.7954 11.2841 -1.42109e-14 -1e-06 -20.8194 2.99336 -43.7284 33.0001 1.6e-05 -1e-06 -136.332 -6.13527 17.8224 25.1998 0.000123 0.000432 -5.39749 -7.02685 8.12792 
-85.1341 84.0417 87.0105 69.7894 -69.0715 -11.4208 0.103456 1.85784 10.5485 -16.3033 11.7245 179.782 43.5 -4.2e-05 1e-05 -46.0997 -4.32156 2.78766 42.3722 1.9e-05 0 82.6213 2.48399 -2.9348 17.3 -7.10543e-15 3e-06 21.4546 -1e-06 0.003093 0.103456 1.85782 -10.5485 8.55898 0.336132 174.101 43.5 -2.7e-05 4e-06 -77.6287 22.225 5.66349 42.3723 1.42109e-14 1e-05 77.6174 -37.2924 22.9059 17.3 -6e-06 1.7e-05 21.4546 -1.9e-05 -0.003116 6.90197 -2.60373 -3e-06 10.4973 0.00721974 -0.551857 12.5881 1e-05 8e-06 10.9825 0.0393125 -1.07076 12.3432 -1.8e-05 -5e-06 10.6659 0.136807 -1.05525 25.8329 2.3e-05 7e-06 3.25298 -2.65308 -1.68046 11.7666 -8e-06 -6e-06 -29.6925 -13.2602 13.9963 19.7459 -1.48035 6.0001 -177.598 -5.04832 -91.7791 11.2841 1.8e-05 -2e-05 -7.73046 -17.7559 66.4493 33 -1.3e-05 1.9e-05 -97.953 -12.9318 -6.31857 25.2 3.2e-05 1.1e-05 -34.4937 27.4667 2.08524 19.7461 -1.48036 -6.00008 -161.24 -10.8945 75.5649 11.2841 0 -1e-06 -18.769 2.98742 -45.1499 33.0001 1.6e-05 -1e-06 -133.159 -7.30579 19.5355 25.1998 0.000123 0.000432 -4.90904 -10.5796 10.4923 
-87.4312 82.3912 81.7097 63.7341 -72.1104 -17.4174 0.103456 1.85784 10.5485 -14.1073 12.4186 179.635 43.5 -4.2e-05 1e-05 -52.5166 -5.5283 3.81932 42.3722 1.9e-05 2.84217e-14 87.2634 1.00956 -1.25515 17.3 -3.55271e-15 3e-06 21.4546 -1e-06 0.003093 0.103456 1.85782 -10.5485 1.03065 0.42873 172.151 43.5 -2.7e-05 4e-06 -88.2937 22.8614 2.81128 42.3723 1.42109e-14 1e-05 82.0126 -33.4432 21.5357 17.3 -6e-06 1.7e-05 21.4546 -1.9e-05 -0.003116 6.90197 -2.60373 -3e-06 10.4222 -0.235499 -0.801844 12.5881 1e-05 8e-06 10.8357 -0.493339 -1.52082 12.3432 -1.8e-05 -5e-06 10.5284 -0.424845 -1.47143 25.8329 2.3e-05 7e-06 3.70216 -0.993818 -2.39266 11.7666 -8e-06 -6e-06 -28.7778 -11.7443 14.7532 19.7459 -1.48035 6.0001 -179.246 -4.63347 -91.2015 11.2841 1.8e-05 -2e-05 -9.02757 -21.3901 65.5136 33 -1.3e-05 1.9e-05 -98.3829 -8.75256 -5.40297 25.2 3.2e-05 1.1e-05 -31.6183 32.4378 -1.4992 19.7461 -1.48036 -6.00008 -161.205 -10.5386 72.0627 11.2841 -1.42109e-14 -1e-06 -16.7479 1.815 -46.8723 33.0001 1.6e-05 -1e-06 -129.524 -7.88373 21.7801 25.1998 0.000123 0.000432 -3.67626 -15.3107 14.0971 
-89.0881 81.6546 76.343 55.6644 -75.877 -26.0472 0.103456 1.85784 10.5485 -9.32445 13.4447 -178.221 43.5 -4.2e-05 1e-05 -53.4282 -5.59195 0.949164 42.3722 1.9e-05 0 91.3281 0.051352 -0.448224 17.3 7.10543e-15 3e-06 21.4546 -1e-06 0.003093 0.103456 1.85782 -10.5485 -8.35626 -0.118359 172.32 43.5 -2.7e-05 4e-06 -94.2869 22.5848 -0.377629 42.3723 1.42109e-14 1e-05 82.491 -27.1818 14.929 17.3 -6e-06 1.7e-05 21.4546 -1.9e-05 -0.003116 6.90197 -2.60373 -3e-06 10.4085 -0.266138 -0.995051 12.5881 1e-05 8e-06 10.8079 -0.59215 -1.89931 12.3432 -1.8e-05 -5e-06 10.5029 -0.547311 -1.84304 25.8329 2.3e-05 7e-06 4.27727 0.694349 -3.09277 11.7666 -8e-06 -6e-06 -29.4289 -10.3183 15.231 19.7459 -1.48035 6.0001 179.775 -3.72261 -91.2847 11.2841 1.8e-05 -2e-05 -8.68313 -25.8581 66.5066 33 -1.3e-05 1.9e-05 -99.9769 -5.26334 -4.31922 25.2 3.2e-05 1.1e-05 -35.1368 31.3001 -1.37202 19.7461 -1.48036 -6.00008 -160.869 -9.82304 69.9339 11.2841 0 -1e-06 -14.8396 -0.419921 -48.4347 33.0001 1.6e-05 -1e-06 -128.436 -4.63597 24.941 25.1998 0.000123 0.000432 -3.47251 -15.7347 14.3898 
-90.5186 81.8752 70.8779 44.1561 -79.2001 -38.1042 0.103456 1.85784 10.5485 -2.98654 14.785 -177.133 43.5 -4.2e-05 1e-05 -50.5135 -5.75575 -1.90317 42.3722 1.9e-05 0 92.578 -0.288575 0.318057 17.3 0 3e-06 21.4546 -1e-06 0.003093 0.103456 1.85782 -10.5485 -17.3917 -1.105 173.533 43.5 -2.7e-05 4e-06 -94.6467 19.4198 -1.68175 42.3723 1.42109e-14 1e-05 79.8888 -17.7455 4.50271 17.3 -6e-06 1.7e-05 21.4546 -1.9e-05 -0.003116 6.90197 -2.60373 -3e-06 10.4665 -0.472019 -1.09573 12.5881 1e-05 8e-06 10.9252 -1.02116 -2.05878 12.3432 -1.8e-05 -5e-06 10.6273 -0.983535 -1.97555 25.8329 2.3e-05 7e-06 4.72132 1.87119 -3.79638 11.7666 -8e-06 -6e-06 -30.1886 -8.84527 15.0379 19.7459 -1.48035 6.0001 179.473 -2.3271 -92.2197 11.2841 1.8e-05 -2e-05 -7.4016 -28.5985 68.2162 33 -1.3e-05 1.9e-05 -100.865 -8.92076 -4.11385 25.2 3.2e-05 1.1e-05 -40.626 32.2471 -2.3669 19.7461 -1.48036 -6.00008 -160.525 -8.80021 69.8231 11.2841 0 -1e-06 -14.4306 -3.61644 -48.9352 33.0001 1.6e-05 -1e-06 -129.758 -0.409825 28.0371 25.1998 0.000123 0.000432 -2.62919 -13.0909 11.9485 
-91.8657 83.0037 64.8748 29.3546 -81.7126 -53.267 0.103456 1.85784 10.5485 4.74463 16.0582 -178.052 43.5 -4.2e-05 1e-05 -44.0174 -6.70269 -3.36594 42.3722 1.9e-05 0 90.3385 -0.478324 0.8362 17.3 -3.55271e-15 3e-06 21.4546 -1e-06 0.003093 0.103456 1.85782 -10.5485 -24.0199 -1.85243 174.494 43.5 -2.7e-05 4e-06 -88.6075 12.9317 -0.493789 42.3723 0 1e-05 77.6448 -7.48281 -4.67925 17.3 -6e-06 1.7e-05 21.4546 -1.9e-05 -0.003116 6.90197 -2.60373 -3e-06 10.3811 -0.8704 -1.1142 12.5881 1e-05 8e-06 10.7579 -1.81781 -2.0189 12.3432 -1.8e-05 -5e-06 10.4733 -1.77861 -1.88608 25.8329 2.3e-05 7e-06 4.77798 2.92054 -4.57147 11.7666 -8e-06 -6e-06 -30.0688 -6.90734 14.4999 19.7459 -1.48035 6.0001 -179.793 -0.901673 -93.3018 11.2841 1.8e-05 -2e-05 -5.28767 -30.4842 70.1245 33 -1.3e-05 1.9e-05 -103.748 -8.5209 -3.00189 25.2 3.2e-05 1.1e-05 -42.2203 32.2234 -2.5556 19.7461 -1.48036 -6.00008 -160.309 -7.66618 70.253 11.2841 0 -1e-06 -14.7657 -7.30351 -48.4267 33.0001 1.6e-05 -1e-06 -131.116 0.22667 29.7529 25.1998 0.000123 0.000432 -3.96324 -13.1883 11.6017 
